HIERARCHY
ROOT Hips
{
	OFFSET 0.00000 0.00000 0.00000
	CHANNELS 6 Xposition Yposition Zposition Zrotation Yrotation Xrotation 
	JOINT LHipJoint
	{
		OFFSET 0 0 0
		CHANNELS 3 Zrotation Yrotation Xrotation
		JOINT LeftHip
		{
			OFFSET 1.53794 -1.55850 0.93568
			CHANNELS 3 Zrotation Yrotation Xrotation
			JOINT LeftKnee
			{
				OFFSET 2.28545 -6.27922 0.00000
				CHANNELS 3 Zrotation Yrotation Xrotation
				JOINT LeftAnkle
				{
					OFFSET 2.37329 -6.52057 0.00000
					CHANNELS 3 Zrotation Yrotation Xrotation
					JOINT LeftToe
					{
						OFFSET 0.14846 -0.40788 2.09160
						CHANNELS 3 Zrotation Yrotation Xrotation
						End Site
						{
							OFFSET 0.00000 -0.00000 1.07536
						}
					}
				}
			}
		}
	}
	JOINT RHipJoint
	{
		OFFSET 0 0 0
		CHANNELS 3 Zrotation Yrotation Xrotation
		JOINT RightHip
		{
			OFFSET -1.78290 -1.55850 0.93568
			CHANNELS 3 Zrotation Yrotation Xrotation
			JOINT RightKnee
			{
				OFFSET -2.24144 -6.15831 0.00000
				CHANNELS 3 Zrotation Yrotation Xrotation
				JOINT RightAnkle
				{
					OFFSET -2.35091 -6.45907 0.00000
					CHANNELS 3 Zrotation Yrotation Xrotation
					JOINT RightToe
					{
						OFFSET -0.14428 -0.39641 2.07944
						CHANNELS 3 Zrotation Yrotation Xrotation
						End Site
						{
							OFFSET -0.00000 -0.00000 1.06864
						}
					}
				}
			}
		}
	}
	JOINT lowerback
	{
		OFFSET 0 0 0
		CHANNELS 3 Zrotation Yrotation Xrotation
		JOINT Chest
		{
			OFFSET -0.08841 2.11430 -0.15818
			CHANNELS 3 Zrotation Yrotation Xrotation
			JOINT Chest2
			{
				OFFSET -0.00033 2.12605 -0.08097
				CHANNELS 3 Zrotation Yrotation Xrotation
				JOINT lowerneck
				{
					OFFSET 0 0 0
					CHANNELS 3 Zrotation Yrotation Xrotation
					JOINT Neck
					{
						OFFSET 0.04431 1.59447 0.43193
						CHANNELS 3 Zrotation Yrotation Xrotation
						JOINT Head
						{
							OFFSET 0.00455 1.62017 -0.58852
							CHANNELS 3 Zrotation Yrotation Xrotation
							End Site
							{
								OFFSET -0.00920 1.72955 -0.25850
							}
						}
					}
				}
				JOINT LeftCollar
				{
					OFFSET 0 0 0
					CHANNELS 3 Zrotation Yrotation Xrotation
					JOINT LeftShoulder
					{
						OFFSET 2.86490 1.49927 -0.33774
CHANNELS 3 Zrotation Xrotation Yrotation
						JOINT LeftElbow
						{
OFFSET 0 -4.874080 0.000000
CHANNELS 3 Zrotation Xrotation Yrotation
							JOINT LeftWrist
							{
OFFSET 0 -2.767290 0.000000
CHANNELS 3 Zrotation Xrotation Yrotation
								JOINT lhand
								{
									OFFSET 0 0 0
CHANNELS 3 Zrotation Xrotation Yrotation
									JOINT LFingers
									{
OFFSET 0 -0.989220 0.000000
CHANNELS 3 Zrotation Xrotation Yrotation
										End Site
										{
OFFSET 0 -0.797530 0.000000
										}
									}
								}
								JOINT LThumb
								{
OFFSET 0 0.000000 0.000000
CHANNELS 3 Zrotation Xrotation Yrotation
									End Site
									{
OFFSET 0 -0.809720 0.809720
									}
								}
							}
						}
					}
				}
				JOINT RightCollar
				{
					OFFSET 0 0 0
					CHANNELS 3 Zrotation Yrotation Xrotation
					JOINT RightShoulder
					{
						OFFSET -2.94414 1.45463 -0.25291
CHANNELS 3 Zrotation Xrotation Yrotation
						JOINT RightElbow
						{
OFFSET 0 -4.714040 0.000000
CHANNELS 3 Zrotation Xrotation Yrotation
							JOINT RightWrist
							{
OFFSET 0 -2.834680 0.000000
CHANNELS 3 Zrotation Xrotation Yrotation
								JOINT rhand
								{
									OFFSET 0 0 0
CHANNELS 3 Zrotation Xrotation Yrotation
									JOINT RFingers
									{
OFFSET 0 -0.868200 0.000000
CHANNELS 3 Zrotation Xrotation Yrotation
										End Site
										{
OFFSET 0 -0.699960 0.000000
										}
									}
								}
								JOINT RThumb
								{
OFFSET 0 0.000000 0.000000
CHANNELS 3 Zrotation Xrotation Yrotation
									End Site
									{
OFFSET 0 -0.710650 0.710650
									}
								}
							}
						}
					}
				}
			}
		}
	}
}
MOTION
Frames: 11
Frame Time: 0.008333333333333333
-13.681800 16.494100 28.575100 177.631000 -2.898000 -169.137000 0.000000 0.000000 0.000000 -13.245100 -21.352900 -38.235900 2.891100 10.516600 30.666300 0.218900 11.483800 10.915600 0.075600 -1.774100 -4.881800 0.000000 0.000000 0.000000 26.067200 -0.549200 9.320300 -1.743200 -8.309400 23.657700 -1.007000 -22.407100 22.433200 -0.843100 5.856900 -16.369900 -2.570100 4.702800 -5.089900 -2.028300 6.468800 0.835500 -0.138000 3.163300 3.657600 -2.453200 -3.206800 -33.287300 3.437200 -10.736300 44.371900 -1.518900 -4.581900 28.261300 -0.000000 0.000000 0.000000 25.382500 37.709900 -55.740000 108.740300 -58.630500 76.155000 15.769500 17.751900 -6.300600 0.000000 0.000000 0.000000 -7.125000 0.000000 0.000000 -9.225900 36.390100 -1.974000 -0.000000 0.000000 0.000000 -12.604200 9.322900 48.570900 -106.945000 -58.886800 -74.620000 -14.147200 9.152500 2.043100 0.000000 0.000000 0.000000 7.125000 0.000000 -0.000000 9.977800 31.982100 3.221200
-13.680047 16.501667 28.464257 177.606751 -2.898234 -169.084705 0.000000 0.000000 0.000000 -13.222224 -21.384423 -38.067678 2.751889 10.272476 29.872665 0.229768 11.578195 11.088380 0.071218 -1.719730 -4.731808 0.000000 0.000000 0.000000 26.092851 -0.466258 9.294386 -1.803530 -8.441190 24.064144 -1.023770 -22.636528 22.641243 -0.809473 5.738461 -16.028402 -2.631686 4.687637 -5.241236 -2.040921 6.458925 0.846514 -0.104052 3.154828 3.748986 -2.549143 -3.266312 -33.393878 3.452538 -10.740653 44.330443 -1.492752 -4.589905 28.277544 0.000000 0.000000 0.000000 25.329007 37.737538 -55.652354 108.962424 -58.596230 76.344520 15.709053 17.725051 -6.369694 0.000000 0.000000 0.000000 -7.125000 0.000000 0.000000 -9.286668 36.457354 -1.971604 0.000000 0.000000 0.000000 -12.736078 9.378438 48.721038 -106.831878 -58.901846 -74.523093 -14.107730 8.948518 2.076785 0.000000 0.000000 0.000000 7.125000 0.000000 0.000000 10.013238 32.015230 3.224764
-13.678294 16.509234 28.353414 177.582503 -2.898467 -169.032409 0.000000 0.000000 0.000000 -13.199349 -21.415947 -37.899456 2.612678 10.028353 29.079030 0.240636 11.672590 11.261159 0.066835 -1.665360 -4.581817 0.000000 0.000000 0.000000 26.118502 -0.383315 9.268472 -1.863859 -8.572981 24.470588 -1.040539 -22.865956 22.849285 -0.775846 5.620022 -15.686903 -2.693272 4.672474 -5.392571 -2.053542 6.449050 0.857528 -0.070104 3.146355 3.840371 -2.645086 -3.325823 -33.500455 3.467876 -10.745006 44.288987 -1.466605 -4.597910 28.293787 0.000000 0.000000 0.000000 25.275513 37.765175 -55.564708 109.184549 -58.561961 76.534040 15.648607 17.698202 -6.438789 0.000000 0.000000 0.000000 -7.125000 0.000000 0.000000 -9.347436 36.524608 -1.969209 0.000000 0.000000 0.000000 -12.867956 9.433977 48.871175 -106.718756 -58.916892 -74.426185 -14.068260 8.744537 2.110471 0.000000 0.000000 0.000000 7.125000 0.000000 0.000000 10.048676 32.048360 3.228329
-13.676541 16.516800 28.242571 177.558254 -2.898701 -168.980114 0.000000 0.000000 0.000000 -13.176473 -21.447470 -37.731234 2.473466 9.784229 28.285394 0.251504 11.766984 11.433939 0.062453 -1.610991 -4.431825 0.000000 0.000000 0.000000 26.144153 -0.300373 9.242558 -1.924189 -8.704771 24.877032 -1.057309 -23.095385 23.057328 -0.742219 5.501583 -15.345405 -2.754858 4.657312 -5.543907 -2.066163 6.439176 0.868543 -0.036155 3.137883 3.931757 -2.741030 -3.385335 -33.607033 3.483214 -10.749359 44.247530 -1.440457 -4.605915 28.310031 0.000000 0.000000 0.000000 25.222020 37.792813 -55.477062 109.406673 -58.527691 76.723560 15.588160 17.671353 -6.507883 0.000000 0.000000 0.000000 -7.125000 0.000000 0.000000 -9.408204 36.591861 -1.966813 0.000000 0.000000 0.000000 -12.999834 9.489515 49.021313 -106.605634 -58.931938 -74.329278 -14.028790 8.540555 2.144156 0.000000 0.000000 0.000000 7.125000 0.000000 0.000000 10.084115 32.081491 3.231893
-13.675075 16.521332 28.132554 177.574135 -2.892966 -168.954459 0.000000 0.000000 0.000000 -13.109134 -21.480798 -37.643323 2.385885 9.626436 27.776161 0.264463 11.828803 11.610462 0.054058 -1.480980 -4.073662 0.000000 0.000000 0.000000 26.212666 -0.207077 9.160664 -2.012559 -8.886506 25.444840 -1.046948 -23.370828 23.132991 -0.702236 5.351242 -14.914322 -2.853219 4.759606 -6.077525 -2.031269 6.608403 0.918254 0.124136 3.210160 4.265020 -2.752750 -3.490069 -33.040114 3.500053 -10.888874 44.106372 -1.434998 -4.681905 27.876243 0.000000 0.000000 0.000000 25.437669 37.721255 -55.865718 109.545350 -58.506084 76.841857 15.584705 17.650929 -6.638724 0.000000 0.000000 0.000000 -7.125000 0.000000 0.000000 -9.431270 36.725532 -1.940710 0.000000 0.000000 0.000000 -13.053105 9.821025 48.790180 -106.457474 -58.951233 -74.202324 -13.953759 8.570947 2.097648 0.000000 0.000000 0.000000 7.125000 0.000000 0.000000 10.138101 32.032421 3.262182
-13.673819 16.523640 28.023142 177.619419 -2.882857 -168.948324 0.000000 0.000000 0.000000 -13.009217 -21.515447 -37.614254 2.336131 9.531895 27.475301 0.278954 11.866754 11.789727 0.042722 -1.295551 -3.562978 0.000000 0.000000 0.000000 26.312583 -0.106197 9.037755 -2.121474 -9.104832 26.130875 -1.016711 -23.679985 23.111664 -0.657595 5.177527 -14.417602 -2.978523 4.947957 -6.891231 -1.961561 6.908854 0.996317 0.376995 3.341599 4.775500 -2.702763 -3.627936 -31.979743 3.517991 -11.127417 43.892165 -1.444697 -4.807707 27.112729 0.000000 0.000000 0.000000 25.850511 37.577019 -56.603347 109.622888 -58.493756 76.907972 15.623007 17.635211 -6.814805 0.000000 0.000000 0.000000 -7.125000 0.000000 0.000000 -9.426712 36.907865 -1.897238 0.000000 0.000000 0.000000 -13.048781 10.354731 48.279700 -106.283643 -58.973641 -74.053354 -13.852674 8.773059 1.992385 0.000000 0.000000 0.000000 7.125000 0.000000 0.000000 10.205676 31.923127 3.312053
-13.672562 16.525948 27.913731 177.664703 -2.872749 -168.942189 0.000000 0.000000 0.000000 -12.909301 -21.550096 -37.585184 2.286377 9.437355 27.174441 0.293445 11.904705 11.968993 0.031387 -1.110121 -3.052293 0.000000 0.000000 0.000000 26.412499 -0.005316 8.914846 -2.230389 -9.323158 26.816910 -0.986473 -23.989142 23.090337 -0.612954 5.003813 -13.920883 -3.103828 5.136309 -7.704937 -1.891853 7.209305 1.074381 0.629854 3.473039 5.285980 -2.652775 -3.765804 -30.919371 3.535929 -11.365960 43.677958 -1.454397 -4.933508 26.349215 0.000000 0.000000 0.000000 26.263353 37.432783 -57.340976 109.700425 -58.481427 76.974086 15.661308 17.619493 -6.990886 0.000000 0.000000 0.000000 -7.125000 0.000000 0.000000 -9.422154 37.090198 -1.853765 0.000000 0.000000 0.000000 -13.044457 10.888437 47.769220 -106.109812 -58.996049 -73.904385 -13.751589 8.975171 1.887122 0.000000 0.000000 0.000000 7.125000 0.000000 0.000000 10.273251 31.813832 3.361924
-13.671437 16.526994 27.804680 177.714494 -2.860869 -168.947007 0.000000 0.000000 0.000000 -12.825048 -21.561099 -37.517734 2.236894 9.342678 26.873649 0.308121 11.949065 12.151905 0.024545 -0.993967 -2.732457 0.000000 0.000000 0.000000 26.512830 0.085193 8.791364 -2.340787 -9.540872 27.503721 -0.954513 -24.276766 23.049456 -0.577373 4.865726 -13.525956 -3.201975 5.283204 -8.388493 -1.824155 7.445974 1.146796 0.846256 3.575762 5.722144 -2.632086 -3.872321 -30.038079 3.559705 -11.549043 43.508862 -1.449749 -5.036601 25.727579 0.000000 0.000000 0.000000 26.556751 37.307564 -57.911499 109.767812 -58.470712 77.031546 15.688918 17.604915 -7.132241 0.000000 0.000000 0.000000 -7.125000 0.000000 0.000000 -9.421108 37.236372 -1.819439 0.000000 0.000000 0.000000 -13.059439 11.347264 47.364500 -105.904725 -59.022009 -73.728574 -13.664076 9.097266 1.808242 0.000000 0.000000 0.000000 7.125000 0.000000 0.000000 10.333235 31.731610 3.402468
-13.671028 16.521122 27.697606 177.788993 -2.839279 -169.011865 0.000000 0.000000 0.000000 -12.826655 -21.442485 -37.239895 2.188893 9.247261 26.573228 0.323809 12.028560 12.354805 0.042337 -1.257548 -3.458751 0.000000 0.000000 0.000000 26.615435 0.118849 8.664745 -2.459314 -9.755225 28.194781 -0.913115 -24.446361 22.901392 -0.591454 4.922929 -13.689007 -3.151257 5.202862 -8.358635 -1.767478 7.333027 1.188253 0.862821 3.521071 5.750951 -2.771999 -3.806996 -30.138404 3.615477 -11.428121 43.587042 -1.366456 -5.015215 25.883648 0.000000 0.000000 0.000000 26.195416 37.286587 -57.566027 109.779557 -58.468842 77.041567 15.657920 17.596589 -7.083247 0.000000 0.000000 0.000000 -7.125000 0.000000 0.000000 -9.439309 37.184340 -1.835244 0.000000 0.000000 0.000000 -13.180244 11.395645 47.539500 -105.528315 -59.067439 -73.405627 -13.650958 8.780746 1.873976 0.000000 0.000000 0.000000 7.125000 0.000000 0.000000 10.351612 31.797782 3.391892
-13.670619 16.515249 27.590531 177.863492 -2.817689 -169.076723 0.000000 0.000000 0.000000 -12.828262 -21.323871 -36.962057 2.140892 9.151844 26.272806 0.339498 12.108055 12.557706 0.060129 -1.521129 -4.185044 0.000000 0.000000 0.000000 26.718039 0.152505 8.538126 -2.577840 -9.969578 28.885841 -0.871717 -24.615956 22.753329 -0.605536 4.980133 -13.852058 -3.100539 5.122520 -8.328777 -1.710800 7.220081 1.229709 0.879386 3.466380 5.779757 -2.911911 -3.741670 -30.238730 3.671249 -11.307199 43.665223 -1.283163 -4.993829 26.039716 0.000000 0.000000 0.000000 25.834080 37.265610 -57.220555 109.791301 -58.466972 77.051588 15.626923 17.588263 -7.034253 0.000000 0.000000 0.000000 -7.125000 0.000000 0.000000 -9.457511 37.132307 -1.851050 0.000000 0.000000 0.000000 -13.301050 11.444026 47.714500 -105.151904 -59.112869 -73.082681 -13.637841 8.464227 1.939711 0.000000 0.000000 0.000000 7.125000 0.000000 0.000000 10.369988 31.863955 3.381316
-13.670210 16.509377 27.483457 177.937992 -2.796098 -169.141581 0.000000 0.000000 0.000000 -12.829868 -21.205256 -36.684219 2.092892 9.056426 25.972385 0.355186 12.187550 12.760607 0.077922 -1.784710 -4.911338 0.000000 0.000000 0.000000 26.820643 0.186161 8.411506 -2.696367 -10.183931 29.576901 -0.830318 -24.785552 22.605266 -0.619618 5.037337 -14.015109 -3.049821 5.042178 -8.298919 -1.654122 7.107134 1.271166 0.895951 3.411688 5.808563 -3.051824 -3.676345 -30.339055 3.727021 -11.186276 43.743403 -1.199870 -4.972444 26.195784 0.000000 0.000000 0.000000 25.472744 37.244634 -56.875084 109.803046 -58.465102 77.061609 15.595925 17.579936 -6.985258 0.000000 0.000000 0.000000 -7.125000 0.000000 0.000000 -9.475712 37.080274 -1.866855 0.000000 0.000000 0.000000 -13.421855 11.492406 47.889500 -104.775493 -59.158299 -72.759734 -13.624723 8.147708 2.005446 0.000000 0.000000 0.000000 7.125000 0.000000 0.000000 10.388365 31.930128 3.370740
